<svg version="1" xmlns="http://www.w3.org/2000/svg" width="1080" height="1080" viewBox="0 0 810.000000 810.000000"><path d="M51 1.3c-9.1.5-16.6 1-16.8 1.1-.1.2-.1 27.6 0 61l.3 60.8 3.8-8.9c4.7-10.9 9.9-18.6 15.5-22.6 3.5-2.6 5.2-3.1 9.5-3.1 9.3.1 14.4 3.6 38.2 26.4 9.9 9.6 16.5 14.2 21.8 15.5 1.5.4 2.7.9 2.7 1.1 0 .2-2.6 3-5.8 6.2-3.2 3.2-8.5 9.8-11.7 14.8-3.2 4.9-9.1 13.9-13.1 19.9C85.2 189.1 77.1 196 69.3 196c-7.9-.1-18.9-9.1-28.5-23.5-3.3-4.9-6.2-9.2-6.4-9.4-.2-.2-.4 27.4-.4 61.5v61.9l3.3-8c6.9-16.5 16.4-28.1 27.5-33.3 5.3-2.5 6.7-2.7 18.7-2.7 12.5 0 13.7.2 32 5.3 24.4 6.7 29.1 7.5 40 7 10.7-.5 17.8-3.3 25-9.9 8.8-8.1 11-12.7 17-35.2 1.4-5.4 3.3-11.4 4.3-13.3l1.6-3.5 2.3 7.1c6.8 20.8 24.6 35.2 43.8 35.3 12.4 0 21.9-6.4 27.9-19.1l3-6.2 2.2 4c3.7 6.5 8.3 11.7 14.6 16.2l5.9 4.3-12.3 1.7c-23.1 3.3-45.3 6.8-51.9 8.4l-6.7 1.5-1.2 4.7c-.7 2.6-1.5 5.1-1.7 5.5-.3.4-2.6-1.2-5.3-3.7l-4.8-4.5-24.9 6.4c-13.6 3.5-26.8 7-29.3 7.7l-4.5 1.3-9.8 29.3c-5.5 16-10.2 29.2-10.5 29.2-.4 0-6.8-9.3-14.2-20.5-7.4-11.2-14-20.5-14.5-20.5-1.7 0-15.4 5.5-26.5 10.7-12.6 5.9-31.4 16.5-42.7 24.1l-8.3 5.4v394l5.4 5.3c14.5 14.1 53.4 34.7 88.4 46.9 7.4 2.5 14 4.6 14.8 4.6 1.2 0 1.4-3.2 1.4-18.5 0-13.1.3-18.5 1.1-18.5.7 0 16.6 4.1 35.5 9 18.8 5 34.5 9 34.8 9 .3 0 .7 8.7.8 19.2l.3 19.3 36 5.2c19.8 2.9 37 5.2 38.3 5.2l2.2.1v-35.2l5.3.6c2.8.3 18 1.5 33.7 2.6 15.7 1.2 30 2.3 31.8 2.6l3.2.5V810h75v-36.9l4.3-.5c2.3-.3 17.9-1.7 34.7-3.2 16.8-1.4 31.1-2.7 31.8-2.9 1.8-.6 1.8-36.5 0-36.4-.7 0-16.8 1.5-35.8 3.2l-34.5 3.2-.3 17.7-.2 17.8h-75v-17.5c0-13.2-.3-17.7-1.2-18-2.5-.8-71.9-7.7-72.4-7.2-.3.3-.9 8.6-1.2 18.4l-.7 17.9-37.5-6.5-37.5-6.6-.5-18.5-.5-18.4-35-10.3c-19.2-5.6-35.3-10.3-35.7-10.3-.5 0-.8 8.3-.8 18.5 0 17.5-.1 18.5-1.9 18.5-7.6 0-52.2-20.2-65.8-29.9l-7.3-5.2v-67.1c0-63.8.1-67 1.8-65.6 12.7 10.8 17 14.2 24.2 19.4 66.8 48.1 169 77.5 282 81.3 142.3 4.7 274.8-30.1 352.1-92.4l7.9-6.5v131l-7.1 4.6c-9.7 6.3-60.6 29.4-64.8 29.4-.8 0-1.1-5.3-1.1-17.8 0-9.8-.2-18.1-.5-18.4-.3-.3-17.2 4.5-37.5 10.6l-37 11.1v18.2c0 11.2-.4 18.4-1 18.8-1 .6-52.6 10.4-67.2 12.8l-6.8 1.1v36.8l3.8-.6c25.8-4 69.7-10.6 70.3-10.6.5 0 .9-8.7.9-19.4v-19.4l4.8-1.6c6.4-2 68.6-19.6 69.5-19.6.4 0 .7 8.2.7 18.2 0 10.1.3 19.3.6 20.6.7 2.6-.3 2.8 17.2-3.5 36.3-13 75.2-32.9 88.6-45.4l4.6-4.2V317.4l-21.7-11.1c-22.7-11.5-42.7-20.7-44.3-20.1-.5.2-5.9 7.6-12 16.6-6.2 9-11.3 16.2-11.5 16-.1-.2.1-9.3.7-20.2.5-11 .7-20.5.4-21.1-.7-2-30.6-13.2-38.5-14.5l-7.3-1.2-6.9 6.8-6.9 6.8V257.1l-5.2-1.4c-9.4-2.7-31.5-7.4-65.7-14.1-18.4-3.6-33.6-6.8-33.8-7-.3-.2 1.3-1 3.4-1.6 2.1-.7 6.2-2.6 9.2-4.1 6.5-3.5 11.6-3.7 17.4-.8 3.1 1.6 7.2 2.4 16.7 3.1 15.7 1.1 21.5 2.8 27.8 7.8 5.9 4.6 5.9 4.6 9.6-6 1.5-4.1 2.9-8.1 3.1-8.8.3-.8 2.6.9 6.1 4.7 7.4 8.1 16 12.2 31.9 15.5 6.6 1.4 14 3.2 16.4 4 5.4 2 11.5 6.4 14.7 10.8 1.4 1.8 3 3.3 3.7 3.3 2.4 0 3.9-7.7 3.4-17.8-.2-5.3-.3-9.7-.2-9.7.1 0 4.9 2.2 10.6 5 27 12.8 32.7 9.3 44.5-27.2 2.6-8.3 3-8.8 6.6-10.3 5.6-2.2 7.6-1.9 11.3 1.8 3.9 3.9 6 10.1 8 24.2 2.5 16.9 6.2 31.5 8 31.5.3 0 .5-29.1.5-64.6v-64.6l-3.1 2.6c-3.6 3.1-6.4 3.2-16.9 1-6.7-1.5-8.1-1.5-13-.2-3 .8-6.3 1.9-7.3 2.3-1.4.6-1-.7 1.7-5.6 5.5-10.1 6.7-17.2 6.4-38.3-.2-17.2-.1-18.3 2.1-22.9 2.7-5.6 6.8-8.2 11.6-7.3 4.1.8 10.7 6.4 15.1 13l3.4 5.1V-.2l-12.2.4C748 .7 745.7 1.6 731.6 12c-9.6 7.1-10 7.3-12.5 5.9-3.6-2-3.8-5.9-.7-11.6 1.4-2.5 2.6-4.8 2.6-5.1 0-1-19.1 1-26.9 2.8-8.5 2.1-15.7 5.3-23 10.3-6.2 4.2-10.9 3.5-26.8-4.5-13.4-6.7-19.8-8.1-27.8-5.9-5.7 1.5-15.4 7.6-22.9 14.3-3.6 3.2-7.1 5.8-7.8 5.8-2.4 0-7.5-6.1-12.6-15-4.3-7.6-5.2-8.5-7.8-8.5-24.5 0-114.1 1.8-114.5 2.3-.7.8 5.5 96.9 6.3 97.8.3.3 7.5-4.9 15.8-11.5 8.4-6.7 15.8-12.1 16.4-12.1.7 0 3.9.7 7.1 1.5 4.4 1.1 6.9 2.5 9.2 5 1.8 1.9 3 4 2.7 4.7-.5 1.2-45.2 38-48.2 39.7-1.2.7-.8 6.1.5 6.1.2 0 11.6-8.6 25.3-19 13.7-10.4 25.1-19 25.4-19 .3 0 .6 1.5.6 3.2-.1 3.1-1.5 4.4-25.5 22.8L461 141.4v5.6c0 14.7 1.4 34 2.4 34 2.1 0 36.1 25.7 36.5 27.6 1.1 5.5-5.7 20.4-9.3 20.4-.7 0-6.4-3.8-12.6-8.5-6.2-4.7-11.5-8.5-11.7-8.5-.2 0-.3 1.7-.3 3.8 0 3.6.4 4.1 8.7 10.2 4.7 3.6 9.1 6.8 9.6 7.2 1.4.8-1 3.8-3 3.8-.8 0-4-1.8-7-4-3.1-2.2-6-4-6.5-4-1.5 0-.8 4.6 1.7 10.9l2.6 6.3-4.7 7.6c-5.8 9.2-5.3 10-8.8-15.3-6.1-43.9-9.6-82.2-15.1-165-2-29.7-3.9-57.8-4.3-62.5l-.7-8.5-31.2-.3L376 2l-.4 2.2c-.2 1.3-1 12.4-1.6 24.8-4.6 92.8-11.2 167.3-19.7 222l-1.6 10.5-2.9-6.4c-4.1-9.3-4.2-9.8-1.3-19.5 1.4-4.9 2.3-9.2 2-9.4-.3-.3-3 1.8-5.9 4.7-4.3 4.2-5.9 5.2-8.1 4.9-1.6-.2-3-.8-3.1-1.3-.2-.6 3.7-4.2 8.6-8 8.4-6.6 8.9-7.2 9-10.8 0-2-.3-3.7-.6-3.7s-5.8 3.7-12.1 8.1l-11.5 8.2-2.6-2.7c-2.4-2.3-2.7-3.6-3-10.5l-.4-7.9 16.1-12.1L353 183v-4.9c0-2.7.3-6.3.6-8l.7-3.1h-6.6c-21 0-48.9-22.3-53.1-42.5-.5-2.6-.4-2.8.7-1.1 8.8 13.4 19.7 23.4 32.6 29.9 7.2 3.6 9.4 4.2 14.7 4.2 4.7 0 6.7-.5 8.3-1.9 2.9-2.6 5.3-7.9 4.9-10.5-.2-1.3-8.3-8-22.8-18.8-19.1-14.3-22.5-17.3-22.8-19.7-.2-1.6.1-3.3.6-3.8.7-.7 8.4 4.7 22.9 16.1l21.8 17.1.9-4c.5-2.2.7-4.2.5-4.4-.2-.2-9.8-7.4-21.4-16-22.9-17.2-22.7-17-18-23.1 2.5-3.4 6.8-5.8 12.1-6.9 2.7-.6 4.5.3 16 8.8 7.1 5.1 13 9.3 13.2 9.1.4-.4 6.2-88.9 6.2-94.8V0h-52.4c-42.5 0-52.7.3-53.8 1.3-.7.8-5.8 7.3-11.3 14.5C242 23.1 237.2 29 236.7 29c-2.9 0-8.5-4.3-16.7-12.7-13.1-13.4-16.3-14.8-33.5-14.7-14.6.1-18.9 1.1-44.2 10.5-21.8 8-26.9 9.2-41.8 9.3-15.3.1-21-1.4-27.6-7.3-3.7-3.3-4.4-4.5-4.9-8.7L67.5.5 51 1.3zm487.1 65.9c18.8 26.6 34.3 49 34.5 49.8.3 1.4-13.3 12-15.3 12-.4-.1-17.4-23.1-37.8-51.2-20.3-28.1-38.3-52.8-39.8-54.9l-2.9-3.9h27l34.3 48.2zM519 20c3.1.9 6.7 5.5 34.4 44.4 17.1 23.8 31.1 43.7 31.3 44.2.2.5-.7 1.5-1.8 2.2-1.8 1.2-2.4 1.2-3.5 0s-54.6-76-62.4-87.2c-3.3-5-3.3-5.1 2-3.6zm-95.5 1c.4.6 1.3 15.3 2.1 32.8 5.3 122.4 8 157.2 15.5 205.7 15 96.1 44.5 157.8 89.6 187.2 12.5 8.2 19.5 10.9 46.8 18.4 13.8 3.8 28.8 8 33.5 9.2 4.7 1.3 35.4 9.8 68.2 18.8l59.8 16.4v32.2l-21.2.6c-11.6.4-54 .8-94.2.8-40.2.1-85.5.4-100.8.8l-27.6.6-43.7 55c-24.1 30.2-44.3 55.6-44.9 56.3-.9 1-10.2-11-43.6-56.3L320.6 542H69v-15.5c0-8.5.2-15.5.4-15.5.3 0 14.6-4 31.8-8.9 17.2-5 48.2-13.8 68.8-19.6 20.6-5.9 50.1-14.2 65.5-18.6 21.4-6 30.4-9.1 38-12.9 41-20.3 70.5-65.6 87.9-134.6 13.1-52.2 19-102.5 25.1-213.9 2.4-42.9 5.1-80 5.9-81.3.9-1.6 30.2-1.7 31.1-.2zm-82.5.6c0 .8-86.1 106.8-87 107.2-1 .4-43.1-29.9-43.7-31.4-.2-.7 12.8-18.1 28.9-38.7l29.3-37.6 36.3-.1c19.9 0 36.2.2 36.2.6zm240.9 34.3c13.4 19.2 24.4 35.3 24.4 35.7.1 1-14.1 11-14.6 10.3C586.4 95.1 533 22 533 21.6c0-.3 5.5-.6 12.3-.6h12.2l24.4 34.9zM636.3 24c-.1 1.4-.5 5.1-.9 8.2-.9 8 .9 10.8 7.1 10.8 3.6 0 7.7-1.7 22-9 18.2-9.3 27.3-13 32.4-13h2.9l-5.4 8.2c-5.3 8-7.2 13.2-6 16.4.9 2.4 8 1.1 13-2.4 16.6-11.6 19-12.4 38.8-13 20.8-.5 21.8.1 9.8 6.3-18.3 9.5-18.1 9-19.6 41-1.4 29.9-3.2 39.5-9.1 48.5-2.5 4-6.2 6.4-11 7.3-4 .8-13.5-1.7-19-4.9l-4.2-2.4 1.6-3.7c1-2.6 1.3-5.2.9-8.5-.6-4-.4-4.8.9-4.8 2.9 0 10-8.6 15.2-18.6 7.6-14.5 20.5-48.5 19-50-.7-.8-9.1 9-20.1 23.5-20.1 26.5-32.3 34.7-44.6 30-6-2.3-11.2-2.4-18.9-.5-12.2 3.1-11.4 3.5-20.8-8.9-8.4-11-19.7-31.5-20.9-38-1.9-10.5 17.2-25.8 31.6-25.2 5.2.2 5.5.3 5.3 2.7zm-436.8 4.5c7.7 2 14.7 5.9 20.9 11.6l5 4.6-5.8 7.8-5.8 7.8-2.4-3.1c-3.6-4.5-11.4-9.1-17.7-10.2-7.7-1.5-15.5.3-36.3 8.3-9.3 3.6-20.1 7.2-24.1 8.1-8.8 2-20.8 2-28.8.2-3.3-.8-6.1-1.3-6.2-1.2-.1.1.9 1.9 2.2 3.9 4.9 7.1 16.6 12.7 26.6 12.7 7.2 0 21-3.1 38.6-8.5 21.7-6.8 32.1-8.1 36.6-4.5 1.5 1.2 2.7 2.7 2.7 3.5 0 .7-4.3 7.2-9.7 14.5l-9.6 13.3 4.9 4.2 4.9 4.3-5.5 1.1c-25.3 5.2-46.6 5.2-65.9 0C98.6 100 79 80.9 68.7 53c-1.9-5.2-3.8-10.8-4.1-12.4l-.7-2.9 3.3 2.2c9.6 6.4 21.1 8.9 33.4 7.2 10.3-1.5 16.6-3.2 38.1-10.2 10-3.3 21.9-6.8 26.5-7.9 10.4-2.3 26.3-2.6 34.3-.5zm-.8 26.4c5.2 2.6 6.9 4.8 2.7 3.5-1.6-.5-7.6-.9-13.4-.8-9.9 0-11.3.3-24 4.8-25 8.8-28.5 9.8-35.5 10.3-5.3.3-7.9-.1-10.8-1.4l-3.9-1.8h9.9c10.5-.1 11.4-.3 37.5-10.4 5.9-2.3 13.1-4.8 16-5.6 6.9-1.9 16.2-1.4 21.5 1.4zm507.2 23.3c-4.9 9.5-11.5 18.8-16.4 23.1-4.6 4.1-13.8 6.1-17.5 3.7-1.7-1-1.7-.9 3.3-3.8 6.6-3.8 11.3-8.2 23.4-22.1 6.5-7.3 11.9-12.9 12.1-12.3.2.6-2 5.7-4.9 11.4zM653.5 106c8.4 1.2 16.7 5 19.5 9 1.1 1.5 2 3.1 2 3.4 0 .3-2.4.6-5.2.6-5.5 0-12.3 2.5-14.6 5.3-1.5 1.8-.1 2.3 12.3 4.7 14.8 3 28.7 8.5 36.1 14.6 3.8 3.1 7.3 8.8 6.1 10-.3.3-3.1 0-6.4-.7-5.9-1.2-13.5-.7-16.3 1.2-1.3.8-1 1.3 1.5 3.4 5.2 4.3 11 6.5 17.3 6.5 7.3 0 11.9-1.4 25.2-7.6 9.2-4.3 11.3-4.9 17.1-4.9 4.1 0 7.2.5 8.2 1.4 1.5 1.2 1.1 1.9-4.1 7-5.5 5.6-7.5 8.7-20 32.1-7.7 14.2-16.2 23.1-24.5 25.5-11.6 3.3-24.8-1.3-44.1-15.4-5.3-3.8-7.3-4.8-8.3-3.9-2.3 1.9-1.5 3.4 6.2 11.9 4.2 4.6 8.7 10.3 10.1 12.6 2.4 4.2 5.2 14.8 4.2 15.9-.3.3-2.8-.9-5.6-2.6-3.1-1.9-9.5-4.2-16.8-6.1-6.6-1.6-14.3-4.1-17.2-5.5-6.8-3.3-16.9-12.7-24.2-22.6-5.7-7.6-16.8-26-21.1-35.1-1.8-3.6-2.8-4.7-4.6-4.7-3.9 0-2.8 4.7 4.6 20.7 10.2 21.9 12.1 30.5 8.6 39-2.7 6.4-3.2 6.6-8.1 3.2-2.4-1.6-7.7-4.6-11.7-6.5-6.4-3-8.8-3.6-18.3-4.3-6.7-.4-12.1-1.4-14-2.4-7.2-3.8-17.9-18.4-29.5-40.5-5.9-11.2-7.3-12-10.2-6-1.6 3.2-1.6 4-.4 7 .8 1.9 4.7 6.9 8.6 11.2 10.6 11.4 13.2 18.7 9.6 27.3l-1.5 3.5-3.2-2.4c-1.8-1.4-10-7.1-18.3-12.8-8.2-5.6-18.1-12.8-21.9-15.8l-6.8-5.6.5-5.6c1-11.3 9.9-22.6 21.5-27.1 8.1-3.2 22.3-3.2 30.4 0 10.1 3.9 14.5 7.7 21 18.1 13 20.7 26.6 36.3 34.2 39.5 7.6 3.2 7.1 1.7-5.5-14.1-4.9-6.1-10.3-13.8-12-17-2.7-5.2-3-6.7-2.7-12.4.3-5.1 1-7.4 3.3-10.8 3.7-5.6 10.1-9.4 15.9-9.4 11.5 0 21.9 10.7 43.9 45.2 9.9 15.6 17.5 25.3 20.1 25.8 1.6.3 1.7-.1 1.1-4-2-12.2-12.6-29.1-34.9-55.8-8-9.6-14.6-18-14.6-18.7 0-.7 1.9-2.5 4.1-4 3.2-2.1 5.4-2.7 9.3-2.7 10.3 0 19.1 8 37.7 34.1 18.8 26.4 25.8 34.1 35.2 38.3 8.5 3.9 16.2 1.6 24.5-7.5 4.6-5.1 10.1-13.1 8.5-12.3-.5.1-3.4 2.1-6.7 4.3-4.9 3.3-6.8 4-12 4.3-8.9.5-12.8-2.4-26.3-20.1-5.9-7.8-13.7-17.1-17.3-20.8-11.9-12.1-26.7-20.1-42.7-22.9-4-.7-7.3-1.7-7.3-2.1 0-1.1 5.9-5.8 9.9-7.9 7.1-3.6 20-6.5 30.1-6.8 1.9-.1 6.7.3 10.5.8zM191 124c0 .5-1 1-2.3 1-3.9 0-12.2 4.8-17.7 10.3-6.3 6.3-10.3 12-20.5 29.7-17.5 30.2-25.6 39.4-39 44.3l-5 1.8 7.3-.4c5.9-.4 8.7-1.2 14.9-4.2 10.3-5.1 18.7-13.7 33.5-34 6.4-8.8 13.5-18.2 15.9-20.9 9.7-11 22.7-17.6 34.3-17.6 4.8 0 16.1 2.2 17.2 3.3.3.2-2.6 1.4-6.4 2.6-16.1 4.8-23.9 14.3-39.3 47.6-4.1 8.8-9.5 19.1-12 23-18.4 28-44.1 31.1-89.3 10.8-4.5-2-10.6-5-13.6-6.7l-5.5-3.1 6.2-.7C85.9 209 95 200.5 120 163.9c15.2-22.4 30.8-35.5 46.6-39.3 6.9-1.7 24.4-2.1 24.4-.6zm8.9 5.7c0 .5-3.3 2.4-7.2 4.3-10.6 5.1-22.5 17.4-35.5 36.6-5.6 8.3-12.6 17.4-15.6 20.2-6.3 6-9.5 7.1-4 1.4 4.7-4.8 7.3-8.6 17.8-26 4.7-7.9 9.5-15.5 10.6-17 4.9-6.3 12.8-13.6 17.4-15.9 6.1-3.1 16.7-5.4 16.5-3.6zm345.8 7.9c6.2 3.6 9 9.2 8.5 16.8-.2 1.5-.9.8-3-2.5-3.8-5.9-11.6-12.6-16.3-14.1-4.2-1.2-5-2.4-2.1-3.1 3-.9 8.6.4 12.9 2.9zm-273.9 3.5c7.3 2.5 17 8.6 30.2 19.3 5.2 4.2 12.7 9.3 16.5 11.3 6.3 3.4 7.8 3.7 14.7 3.8 4.3 0 7.8.2 7.7.5 0 .3-7 6.3-15.5 13.5l-15.4 13v5.6c0 6.5-.8 7.2-6.5 5.9-6.8-1.5-10.9-6.8-20.7-27-4.9-10.2-10.5-20.4-12.5-22.8-4.5-5.5-9.8-8.2-16.2-8.2-4.6 0-15.5 3.2-16.5 4.8-.2.4 3.3.7 7.7.7 13.1 0 21 4.5 26.3 14.7 1.6 3.2 1.6 3.3-.2 1.6-3.3-2.9-10.7-5.8-14.9-5.8-5.5 0-11.4 3.6-15.2 9.4-4.3 6.3-4.2 7.6.2 3.7 5.2-4.5 9.4-6.4 14.7-6.5 7.9-.2 13.8 5.8 14.6 14.7 1.2 14.8-9.3 24.5-27.6 25.5-10.7.6-15.5-1.2-21.6-7.9-6.1-6.8-8.8-14.1-9.4-25.5-1.1-23 10.3-38.8 32.7-45 7.5-2 19.8-1.7 26.9.7zm243 118.9c36.5 4.7 74.6 11.3 92.3 16l3.9 1.1v13.4c0 10.2-.3 13.5-1.2 13.5-.7-.1-10.5-2.3-21.8-4.9-11.3-2.7-20.7-4.7-21-4.4-.3.2-.7 23.5-1 51.6l-.5 51.2-4.5-.3c-6.2-.4-15.6-2.8-21-5.5l-4.5-2.2-.3-50.2-.2-50.3-2.3-.5c-1.2-.2-10.3-1.6-20.2-3-9.9-1.4-19-2.8-20.2-3.1-2.2-.4-2.3-.8-2.3-12.9 0-6.9.3-12.5.6-12.5s11.2 1.4 24.2 3zm-191 9.2l-.3 11.3-25.3 4.1c-13.9 2.3-25.5 4.3-25.7 4.6-.3.3-.1 23.1.5 50.8.5 27.7.8 50.5.6 50.7-.2.2-4.3 1-9.2 1.8-8.2 1.3-19.4 4.2-23.7 6-1.6.7-1.7-2.4-1.1-64.1.4-35.7.9-65.2 1.3-65.6 1.6-1.8 63.7-10.1 79.9-10.7l3.3-.1-.3 11.2zm-114.5 34.5c1.2 48.7.9 104.3-.5 104.7-1.4.4-28.2 9.2-31 10.2-1.7.6-1.8-1.8-1.8-41 0-23-.4-41.5-.8-41.2-.5.3-8 20.8-16.7 45.6-8.7 24.7-16.2 45-16.6 45-.4 0-8.4-12.5-17.9-27.8-9.5-15.2-17.9-28.4-18.6-29.2-1.2-1.2-1.4 5.5-1.4 42.7v44.1l-6.5 3.7c-6.7 3.7-19.2 13.3-23.4 17.9-1.4 1.4-2.8 2.6-3.3 2.6-.4 0-.7-34.1-.6-75.7l.3-75.8 8.3-5.2c8.5-5.3 19.3-10 25.4-10.9l3.4-.6 16.8 25.6c9.2 14.1 17.1 25.6 17.6 25.6.4 0 2.8-5.3 5.3-11.8 19.8-51 25-63.3 27-64.3 2.5-1.4 31.8-11.8 33.3-11.8.7-.1 1.3 8.7 1.7 27.6zm448.8-11c4.3 1.4 9.1 3.4 10.8 4.4l3.1 1.9v20.7c-.1 26.6.9 30.1 10.3 34.8 5.7 2.8 14.4 3.4 18.7 1.2 5.5-2.8 8.9-14.9 9.1-32.7.1-10.8-.5-10.7 15.2-3.2l13.7 6.5-.2 62.8c-.3 61.9-.3 62.8-2.4 65.6-1.2 1.6-3.6 3.2-5.9 3.8-6.8 1.7-14.9-1.4-48.5-18.3-17.3-8.7-33.4-16.6-35.7-17.4l-4.3-1.6v-16.6c0-9.1.3-16.6.6-16.6s2.4 1.5 4.7 3.4c12.9 10.4 37.4 24 48 26.5 6.1 1.5 11.8.1 14.6-3.6 1.8-2.2 2.1-4 2.1-12.9v-10.3l-7.2 2.5c-21.3 7.2-34.8 4.6-47.7-9.1-5.9-6.4-12.5-17.9-16.4-28.7l-2.3-6.3 1.2-30c.6-16.5 1.2-30.1 1.3-30.3.3-.8 10.3 1.3 17.2 3.5zM345 308.8c0 1.4-14.2 39.8-18.2 49.2-4.8 11.4-9.9 20.9-18.7 35l-6.6 10.5-.3-45.9c-.1-25.3 0-46.1.2-46.3.4-.4 31.6-2.9 39.9-3.2 2 0 3.7.2 3.7.7zm157.9 1.3c4.1.5 7.6 1 7.8 1.2.2.2.2 19.7.1 43.3l-.3 42.9-5.1-8.5c-15.3-25.2-21.4-38.7-27.9-61.6-2.5-8.7-4.8-16.8-5.1-17.8-.6-1.8-.1-1.9 11.2-1.2 6.5.4 15.2 1.1 19.3 1.7zm115 64.1c1.3 3.4 4.4 8.1 7.4 11.4l5.2 5.7-5.8 11.1-5.8 11.1.1 17.2c0 14.2-.3 17.3-1.4 17.3-1.9 0-47.5-12.6-48.3-13.3-.3-.3 2.5-8.1 6.1-17.3l6.6-16.7v-37.8c0-21.5.4-37.9.9-37.9s5.3.9 10.6 2 10.3 2 11.1 2c.8 0 3.3-2.9 5.6-6.4l4.3-6.4.5 26.1c.5 24.2.7 26.6 2.9 31.9zm-367.6 49.6l8.7 12.7-7.2 2.2c-12.4 3.9-11.3 5.1-11.6-12.5-.1-8.3.1-15.2.5-15.2.5 0 4.7 5.8 9.6 12.8zm-64.4 17.3c5.1 6.6 8.9 12.4 8.5 12.8-1.3 1.2-30.6 9.3-31.2 8.7-.6-.7 11.8-33.6 12.7-33.6.3.1 4.8 5.5 10 12.1zm-51.9 7.5c6.2 9.7 10.8 18 10.3 18.4-1 .9-18.5 6-20.7 6-1.4 0-1.6-2.6-1.6-21 0-11.6.2-21 .4-21 .3 0 5.5 7.9 11.6 17.6zm158.2 127.6c2 1.6 40.8 50.5 40.8 51.4 0 1.1-17.1-.4-31-2.6-45.4-7.4-113-27.7-148.2-44.5-4.3-2.1-7.8-4.1-7.8-4.6s30.8-.9 72.3-.9c56.3 0 72.7.3 73.9 1.2zm375.3 1.8c-1.4 2.3-14.9 9.3-28 14.5-33.1 13.3-91.4 29.1-132.6 35.9-19.9 3.3-26.9 4-26.9 2.6 0-1.1 33.3-47.3 37.3-51.8l2-2.2h74.4c48.6 0 74.2.3 73.8 1z"/><path d="M670 47c-1.9 1-8 6-13.5 11-10 9.2-18.6 15.6-24.3 17.9-3.3 1.4-4.5 3.2-3.6 5.6 1.7 4.4 10.8-1.6 31.7-21 8.6-8.1 15.7-14.8 15.7-15.1 0-.9-2.7-.2-6 1.6z"/></svg>