<?xml version="1.0" encoding="utf-8"?>
<!-- Generator: Adobe Illustrator 24.2.3, SVG Export Plug-In . SVG Version: 6.00 Build 0)  -->
<svg version="1.1" id="Слой_1" xmlns="http://www.w3.org/2000/svg" xmlns:xlink="http://www.w3.org/1999/xlink" x="0px" y="0px"
	 viewBox="0 0 511 511" style="enable-background:new 0 0 511 511;" xml:space="preserve">
<style type="text/css">
	.st0{fill:#FFFFFF;}
	.st1{fill:#FFFFFF;stroke:#FFFFFF;stroke-miterlimit:10;}
</style>
<g id="XMLID_1_">
	<g>
		<path class="st0" d="M510.5,150.2c1.2,27.3,1.3,35.9,1.3,105.3s-0.3,78.1-1.5,105.3c-1.2,27.2-5.6,45.7-11.9,62
			c-13.3,34.3-40.4,61.5-74.8,74.8c-16.2,6.3-34.8,10.7-62,11.9c-27.3,1.2-35.9,1.5-105.3,1.5s-78.1-0.3-105.3-1.5
			c-27.2-1.2-45.7-5.6-62-11.9c-17-6.4-32.4-16.5-45.2-29.4c-13-12.8-23.1-28.1-29.5-45.3C8,406.7,3.6,388,2.4,360.9
			c-1.2-27.3-1.5-35.9-1.5-105.3s0.3-78.1,1.6-105.4c1.2-27.1,5.6-45.7,11.9-62c6.4-17,16.5-32.5,29.5-45.2
			C56.6,29.8,72,19.9,89.1,13.4c16.2-6.3,34.8-10.7,62-11.9C178.4,0.3,187.1,0,256.5,0s78.1,0.3,105.4,1.6
			c27.2,1.2,45.7,5.6,62,11.9c17,6.4,32.4,16.5,45.2,29.4c13.1,12.8,23.1,28.1,29.5,45.3C504.9,104.4,509.3,123.1,510.5,150.2z
			 M466,255.7c0-68.2-0.3-76.3-1.5-103.2c-1.1-24.9-5.3-38.4-8.8-47.4C451.6,94,445.1,84,436.6,75.8c-8.2-8.5-18.3-15-29.4-19.1
			c-9-3.5-22.5-7.7-47.4-8.8c-26.9-1.2-34.9-1.5-103.2-1.5c-68.2,0-76.3,0.3-103.2,1.5C128.6,49,115,53.2,106,56.7
			c-11.1,4.1-21.1,10.6-29.3,19.1c-8.6,8.2-15.1,18.3-19.2,29.4c-3.5,9-7.7,22.5-8.8,47.4c-1.2,26.8-1.5,35-1.5,103.2
			S47.5,332,48.7,359c1.1,24.9,5.3,38.4,8.8,47.4c4.1,11.1,10.6,21.1,19.1,29.3c8.2,8.5,18.3,15,29.3,19.1c9,3.5,22.5,7.7,47.4,8.8
			c26.8,1.2,35,1.5,103.2,1.5s76.3-0.3,103.2-1.5c24.9-1.1,38.4-5.3,47.4-8.8c22.3-8.6,39.9-26.3,48.5-48.5c3.5-9,7.7-22.5,8.8-47.4
			C465.7,331.9,466,323.9,466,255.7z"/>
	</g>
	<g>
	</g>
</g>
<path class="st0" d="M256.4,124.3c-72.5,0-131.3,58.8-131.3,131.3S184,386.8,256.4,386.8c72.5,0,131.3-58.8,131.3-131.3
	S328.9,124.3,256.4,124.3z M256.4,340.7c-47,0-85.2-38.1-85.2-85.2s38.1-85.2,85.2-85.2c47,0,85.2,38.1,85.2,85.2
	S303.5,340.7,256.4,340.7z"/>
<path class="st1" d="M423.6,119.1c0,16.9-13.7,30.6-30.6,30.6c-16.9,0-30.6-13.7-30.6-30.6c0-16.9,13.7-30.6,30.6-30.6
	C409.8,88.4,423.6,102.2,423.6,119.1z"/>
</svg>
