<svg width="48" height="52" viewBox="0 0 48 52" fill="none" xmlns="http://www.w3.org/2000/svg">
<path d="M38.517 4.94009C39.1773 4.76768 39.7485 4.23427 40.2652 3.75176C40.7642 3.28573 41.2124 2.86717 41.641 2.86717C41.6155 2.86717 41.4149 3.0618 41.1261 3.34209C40.1568 4.28255 38.1936 6.18735 38.517 4.94009Z" fill="white"/>
<path fill-rule="evenodd" clip-rule="evenodd" d="M21.5805 49.6154V52L26.4135 51.9788V49.6184L31.0546 49.222V51.6369L35.9535 50.8985V48.3989L40.7925 47.0341L40.8225 49.6789C41.0204 49.7606 46.7318 47.6605 48 46.099V20.3978C46.6179 19.6563 45.0978 18.8907 43.6917 18.3218L42.1686 20.537L42.2826 17.7801C42.1108 17.7078 41.9541 17.6415 41.8104 17.5807C40.4263 16.9953 40.2394 16.9162 39.2724 16.8148L38.4 17.6954V16.5061C37.3949 16.1816 34.5193 15.6376 32.7967 15.3117C32.1094 15.1817 31.6056 15.0863 31.4773 15.0535C31.9217 14.9784 32.1989 14.8232 32.4304 14.6936C32.8143 14.4786 33.0725 14.3341 33.7589 14.7418C34.1218 14.8478 34.4622 14.8555 34.7954 14.863C35.4421 14.8776 36.0616 14.8915 36.766 15.6225C36.8884 15.5006 37.009 15.1335 37.1121 14.8197C37.201 14.5491 37.2769 14.3182 37.3297 14.3182C38.0314 15.3753 38.9398 15.5455 39.8031 15.7072C40.6327 15.8627 41.4207 16.0103 41.9438 16.9298C42.3029 16.6567 42.23 15.8415 42.186 15.3499C42.1749 15.2259 42.1656 15.1225 42.1656 15.0535C44.8451 16.4928 44.9845 16.0604 45.9142 13.1764L45.9403 13.0956C47.115 12.4846 47.2776 13.6036 47.4575 14.8419C47.5628 15.5661 47.6739 16.3312 47.997 16.8148V8.32335C47.618 8.86165 47.2944 8.77663 46.8758 8.66666C46.4566 8.55654 45.9423 8.42141 45.1818 8.86201C45.8593 8.09336 46.0542 6.90106 45.8593 5.36679C45.8593 3.72056 47.0436 3.40885 48 5.25482V0.025605C46.2673 -0.0687257 46.0731 0.079655 45.1657 0.772939C44.996 0.902565 44.8014 1.05124 44.5671 1.22094C43.8056 1.10595 44.2284 0.455321 44.5671 0.025605C42.9302 0.140599 42.0577 0.255595 40.9904 1.10595C40.386 1.10595 39.9246 0.853853 39.4803 0.611165C38.5583 0.107447 37.7105 -0.355745 35.8126 1.55987C35.4452 1.55987 35.0937 0.91543 34.7959 0.369319C34.7292 0.247038 34.6653 0.129688 34.6044 0.025605L26.9502 0.1406L27.3699 6.5591L29.4266 4.94009C29.4274 4.94029 29.4281 4.94048 29.4289 4.94067L29.4296 4.94009C29.5131 4.96127 29.6059 4.97856 29.7026 4.99655C30.1309 5.07624 30.6343 5.16994 30.7248 5.67848L27.6308 8.2023L27.6304 8.20011L27.6277 8.20231H27.4868L27.6277 8.74398V8.63202L30.9437 6.13241L30.9437 6.5591L27.6278 9.08292L27.7177 11.5886L27.8304 11.6674L27.8256 11.5856L30.1912 13.3165C30.1911 13.3168 30.1911 13.3171 30.1911 13.3174L30.1941 13.3195C30.1102 14.2002 29.8823 14.4271 29.5465 14.7418L27.9425 13.5465V14.0109C27.9448 14.0392 27.947 14.0666 27.9491 14.0931L29.2407 15.0505C29.2407 15.0505 29.091 15.1977 28.9309 15.1965C28.8912 15.1967 28.8509 15.1879 28.812 15.1655L28.0535 14.6289V15.0475L28.3653 15.8131L27.7177 16.8087C27.0181 12.5078 26.7548 8.43522 26.4985 4.46892C26.4043 3.01283 26.3111 1.57105 26.1976 0.137575H22.1172C22.0845 0.708134 22.0527 1.28001 22.0208 1.85357C21.7543 6.6463 21.4813 11.5573 20.6271 16.8087L20.1774 15.7314L20.4022 15.0475L20.5162 14.5088H20.4022L19.7517 15.1625C19.735 15.1625 19.7195 15.1625 19.705 15.1625C19.4931 15.1623 19.4894 15.1597 19.4248 15.1136C19.4022 15.0975 19.3721 15.076 19.323 15.0475L19.3742 15.0107L20.5162 14.0852V13.5435L18.9931 14.6238C18.9927 14.6237 18.9923 14.6236 18.9919 14.6235L18.9872 14.6268C18.5674 14.5118 18.5674 13.9702 18.5674 13.3165L20.6212 11.7823L20.6211 11.7838L20.6271 11.7792V11.6975L20.7111 10.7019H20.7084L20.7081 10.7049C20.4501 10.7508 20.1926 10.7423 19.9349 10.6956C19.7508 10.677 19.5894 10.6194 19.3997 10.5516C19.3333 10.5279 19.2635 10.5029 19.188 10.478C19.1815 10.4712 19.1742 10.465 19.1662 10.4591C19.1189 10.4396 19.0715 10.4193 19.0242 10.3984C19.0165 10.396 19.0088 10.3936 19.001 10.3912C18.9162 10.3652 18.8253 10.3373 18.7653 10.2782L18.4463 10.0202C18.4293 10.0088 18.4121 9.99725 18.3948 9.98562C18.1259 9.80537 17.8198 9.60014 17.59 9.28265L17.4761 9.17068V9.1367C17.4616 9.11891 17.4473 9.10098 17.4332 9.08292H17.3921V9.02944C17.3714 9.00182 17.351 8.9739 17.3311 8.9457C17.2834 8.94243 17.2813 8.92889 17.2812 8.87292C17.254 8.83204 17.2277 8.79057 17.2024 8.74852C17.1408 8.74369 17.1403 8.72363 17.1403 8.64028C17.1201 8.60329 17.1006 8.56586 17.082 8.528C17.0737 8.52487 17.0642 8.52308 17.0533 8.52308V8.46798C17.0322 8.42239 17.0123 8.3762 16.9937 8.32941H16.9424C16.9424 8.24881 16.9288 8.16857 16.9111 8.08989C16.8903 8.01867 16.8725 7.94619 16.8578 7.87245H16.8315V7.7146C16.8293 7.69868 16.8274 7.6827 16.8255 7.66666C16.8275 7.67278 16.8294 7.6789 16.8315 7.68504V7.67576C16.8315 7.67893 16.8315 7.68211 16.8316 7.6853C16.8519 7.74647 16.8771 7.80898 16.9068 7.87245H16.9424V7.9448C16.9687 7.99588 16.9977 8.04748 17.0293 8.09942H17.0533V8.13836C17.1165 8.23872 17.1888 8.34017 17.2687 8.44137H17.2812V8.45716C17.308 8.49081 17.3357 8.52442 17.3641 8.55795C17.3663 8.56024 17.3684 8.56268 17.3704 8.56529C17.4828 8.69726 17.6071 8.82787 17.74 8.95415C17.9207 9.10832 18.1198 9.26763 18.3203 9.42801C18.3561 9.45665 18.3919 9.48532 18.4277 9.514C18.536 9.58914 18.6459 9.6596 18.7561 9.72427C18.7686 9.72884 18.7804 9.73575 18.7938 9.74621C18.8449 9.77557 18.896 9.80366 18.947 9.83038H18.9931C19.0168 9.85367 19.0391 9.87212 19.0608 9.88776C19.5684 10.1337 20.0561 10.2337 20.397 10.0783C20.3993 10.0659 20.3993 10.0573 20.3993 10.0573H20.4391C20.5059 10.0213 20.5663 9.97459 20.6194 9.91617C20.6241 9.89476 20.6241 9.86935 20.6241 9.83038H20.6864C20.6938 9.81931 20.701 9.80792 20.7081 9.79622V9.63368H20.7846C20.7987 9.59477 20.8112 9.55343 20.822 9.5096L20.8102 9.63368H20.828V9.17673L20.822 9.17234V9.1737L20.0625 8.61285L17.8988 7.01907C17.8988 7.01778 17.8988 7.01649 17.8988 7.0152L17.8959 7.01301C17.8959 6.95735 17.8908 6.90169 17.8861 6.84937C17.8714 6.6884 17.8597 6.5591 18.0068 6.5591L20.822 8.74398V8.74774L20.825 8.75004L20.9359 8.20836L18.1507 6.13845C18.1508 6.1373 18.151 6.13615 18.1512 6.13499L18.1477 6.1324C18.2286 5.59071 18.8762 5.13679 19.4129 5.25178L21.0439 6.4441L21.0436 6.44781L21.0468 6.45015L21.4696 0.0286353H14.5769L13.1678 1.8746C12.6792 1.7814 12.3949 1.45199 12.0889 1.09746C11.3715 0.266312 10.5349 -0.702947 6.66783 0.909245C3.12405 2.21352 1.82886 0.679257 2.2516 0.025605L0 0.1406V8.09033C1.29662 4.45291 2.64131 5.77453 4.00378 7.11362C4.68276 7.78095 5.36616 8.45261 6.05022 8.51703C5.41268 8.88756 4.88922 9.72188 4.37733 10.5378C3.23784 12.3539 2.15566 14.0788 0 10.3932V18.461C1.22947 14.7695 3.33051 15.3639 5.42452 15.9563C7.16539 16.4488 8.9014 16.9399 10.1277 14.9658C10.2763 14.63 10.3972 14.1691 10.5147 13.7211C10.6651 13.1476 10.8099 12.5955 11.0001 12.3542C11.3389 14.9628 14.9966 16.5031 15.95 13.4315C16.1779 14.0882 16.8255 14.7388 17.4731 15.0505C17.3101 15.0751 17.0493 15.1098 16.7303 15.1523C15.5586 15.3083 13.6019 15.5688 12.829 15.8161L12.6311 16.5031L11.9835 15.9342C11.6235 16.027 11.2381 16.1226 10.8455 16.22C9.92056 16.4494 8.9552 16.6888 8.18488 16.9267L6.88969 20.7337L5.06084 18.0071C3.43285 18.5488 1.37614 19.6563 0 20.6217V45.869C0.869456 47.1733 5.17777 49.1342 7.11755 49.5881V47.1491L11.7856 48.3656V50.8137L16.7715 51.5219V49.2492L21.5805 49.6154ZM5.71143 27.6061V30.4174L7.22848 29.9877L5.71143 27.6061ZM9.17127 27.4941L8.29582 29.7637L10.4665 29.1403L9.17127 27.4941ZM13.3626 26.2988V28.3747L14.5739 28.0328L13.3626 26.2988ZM20.1714 19.7683L17.2752 19.965V25.9598C18.712 23.8179 19.07 22.8151 19.6357 21.2306C19.79 20.7982 19.9599 20.3224 20.1714 19.7683ZM30.8657 19.965C29.9933 19.85 29.0099 19.7683 28.3623 19.7683C28.4421 20.0495 28.5121 20.3042 28.577 20.5402C29.0354 22.2086 29.2372 22.9429 30.8657 25.5331V19.965ZM35.4798 25.7329L34.6104 27.9208L37.8753 28.8044V26.5046L38.6309 25.1125C37.509 24.2288 37.5513 23.1448 37.6142 21.5316C37.6302 21.1228 37.6475 20.6801 37.6475 20.198L37.0029 21.1603L35.4798 20.8456V25.7329ZM16.7116 36.9509H7.11755C9.70494 38.3702 16.5137 40.3281 19.4129 40.325L16.7116 36.9509ZM28.812 40.5278C29.7684 40.7548 39.0536 38.7061 41.1103 37.0628H31.3724L28.812 40.5278ZM18.5704 34.7962L24.054 42.174L29.8853 34.9113L45.6435 34.7993V32.7203L33.654 29.4551C26.2972 26.694 25.7845 14.0906 25.4141 4.98738C25.3611 3.68449 25.311 2.45329 25.2442 1.33291H23.1845C23.1666 1.52366 23.1494 1.71763 23.1328 1.91461C23.0283 3.16 22.9501 4.52608 22.8711 5.96376C22.8627 6.11788 22.8542 6.27282 22.8457 6.42852C22.357 15.3679 21.7309 26.8199 14.6608 29.3401C14.6608 29.3401 14.6609 29.3401 14.6608 29.3401L2.2516 32.8323V34.7962H18.5704ZM32.4727 24.9945V18.5457L29.5436 18.116V16.5001L29.6199 16.5092C32.1819 16.8178 34.7471 17.1268 37.3387 17.7741V19.5353L34.5235 18.8816C34.5125 18.8816 34.5037 18.8794 34.4966 18.882C34.468 18.8925 34.468 18.9827 34.468 19.6264C34.468 20.4288 34.468 22.0911 34.4125 25.5301C33.8759 25.5331 32.8895 25.3032 32.4727 24.9945ZM1.93982 2.41324C3.30275 3.53661 4.96487 2.97868 6.67837 2.40349C8.64372 1.74377 10.6767 1.06136 12.4033 2.86717L11.6418 3.86277C10.6044 2.50776 9.44405 2.9706 8.093 3.5095C6.92157 3.97676 5.60677 4.50121 4.10446 3.94751C5.03004 5.65182 6.9669 5.02949 8.58607 4.50923C9.77287 4.12789 10.789 3.8014 11.1111 4.48617L9.8159 6.2474L10.4635 6.78907C7.11759 7.55167 3.12408 7.32471 1.93982 2.41324ZM5.06087 4.37117C5.93958 4.71799 6.95241 4.30784 7.93884 3.90838C9.12998 3.42602 10.2826 2.95925 11.1141 3.85975C10.0839 3.36256 8.92051 3.79852 7.83878 4.2039C6.76094 4.60781 5.76415 4.98135 5.06087 4.37117ZM14.2351 8.32032L11.3389 6.24437L15.2185 1.32987H19.9466L14.2351 8.32032ZM1.82889 13.5465C3.41308 13.6872 4.28908 12.3971 5.22854 11.0135C6.39062 9.30202 7.64978 7.44758 10.4665 7.98139C9.0588 7.92382 8.27761 9.29023 7.48106 10.6835C6.68629 12.0737 5.87622 13.4906 4.41327 13.5465C6.35445 13.8025 7.35278 12.4025 8.33267 11.0284C9.42618 9.49501 10.4967 7.99378 12.829 8.862C11.103 8.98068 10.4427 10.4287 9.77432 11.8945C8.68727 14.2785 7.57869 16.7097 1.82889 13.5465ZM6.35906 12.6629C6.91683 12.2668 7.34167 11.5438 7.77917 10.7993C8.53157 9.51895 9.3214 8.17489 10.8892 8.32032C9.40248 8.80954 8.59365 10.0248 7.90916 11.0533C7.39967 11.8188 6.95907 12.4808 6.35906 12.6629ZM13.2787 14.0852C11.3389 14.0852 10.7753 10.593 12.7151 9.39764C14.8299 8.27387 16.0569 9.26352 17.202 10.1872C18.052 10.8728 18.857 11.5221 19.9466 11.2436L17.8929 12.9776V13.7462C16.9717 13.9416 16.5463 12.9854 16.1028 11.9886C15.5157 10.6688 14.8968 9.27782 13.0539 10.3932C14.3491 10.2813 14.9937 10.3932 15.5273 11.5886C14.9937 10.9349 13.7015 10.596 13.1648 12.1272C15.3324 9.82734 16.7116 14.0852 13.2787 14.0852ZM33.8759 8.32032L28.6711 1.21791H30.413L34.9432 7.55168L33.8759 8.32032ZM35.3689 7.21275L31.0606 1.21791L31.5973 1.32987L35.7047 7.01301L35.3689 7.21275ZM36.1275 6.5591L32.2419 1.32987H33.8759L37.1108 5.90543L36.1275 6.5591ZM42.3559 7.93192C42.4202 7.7819 42.4562 7.69798 42.4694 7.61064C42.486 7.49997 42.4661 7.38369 42.4208 7.12013C42.4151 7.08687 42.409 7.05126 42.4025 7.01301C43.3859 7.01301 44.7651 2.75218 44.7651 2.52522C44.3162 2.89958 43.9081 3.44765 43.4937 4.00407C42.7123 5.05337 41.9088 6.1324 40.7686 6.1324C40.1345 5.77215 39.6848 5.89107 39.2306 6.01115C39.0019 6.07162 38.772 6.1324 38.517 6.1324C37.6445 5.13679 36.889 3.94449 36.5772 2.86415C36.7721 1.7838 38.6309 1.01818 39.0536 1.44487C38.5074 3.41919 39.616 2.83221 40.9143 2.14479C41.6896 1.73431 42.5325 1.28801 43.1311 1.32987C43.1258 1.33737 43.1136 1.35354 43.0958 1.37701L43.0955 1.37745C42.8396 1.7154 41.4474 3.55411 43.1311 2.86415C44.2314 1.86854 45.3257 1.7838 47.0466 1.98353C46.7564 2.15642 46.4995 2.28358 46.2745 2.39497C45.6488 2.70468 45.2692 2.89256 45.1038 3.60253C45.1038 6.55909 45.1038 9.82734 42.2886 8.09033C42.3138 8.03002 42.3362 7.97783 42.3559 7.93192ZM41.1913 6.67408C41.9126 6.39362 42.5237 5.68429 43.0742 5.04544C43.3612 4.71238 43.6316 4.39847 43.8926 4.17447C43.272 5.67848 42.2886 7.32471 41.1913 6.67408ZM32.1309 8.74398C32.6646 8.32031 33.9868 9.08292 33.648 10.0513C33.3422 9.39764 32.8895 8.9437 32.1309 8.74398ZM35.8996 10.3932C35.3434 10.2969 35.6098 10.8256 35.9817 11.5635C36.4737 12.5398 37.1502 13.8823 36.3493 14.6268C35.1821 13.7456 34.5482 13.7439 34.0385 13.7425C33.2338 13.7404 32.7388 13.7391 30.9437 10.2782C30.2624 10.8014 30.6746 11.2253 31.1569 11.7212C31.6678 12.2466 32.2573 12.8528 31.7082 13.7432C31.1327 13.302 30.6332 12.9697 30.1841 12.6711C29.5338 12.2386 28.9894 11.8765 28.4732 11.3556C28.4732 9.08292 31.3694 8.43229 32.8895 9.93326C32.9114 9.96656 32.9474 10.0246 32.9955 10.1022L32.9964 10.1036L32.9965 10.1038C33.4437 10.8248 34.9263 13.2148 35.8186 13.0865C35.6696 12.7873 35.4036 12.4702 35.1247 12.1377C34.3993 11.273 33.5871 10.3047 34.5205 9.27961C35.8089 8.05543 37.0471 9.99211 38.1129 11.659C38.6542 12.5056 39.151 13.2826 39.5873 13.5405C39.819 12.4756 37.8804 10.2423 36.8977 9.11015C36.5705 8.73325 36.3493 8.47838 36.3493 8.42925C37.5671 7.1864 38.6704 8.74325 39.7937 10.3284C41.1621 12.2593 42.5602 14.2323 44.2314 11.2375C42.6761 12.6326 42.0629 11.808 41.1703 10.6077C40.3164 9.45944 39.2068 7.96728 36.772 7.74535C37.6445 6.55304 41.1073 6.35331 41.5301 7.66062C41.1073 7.54562 40.4627 7.66061 40.124 8.08428C40.1465 8.10708 40.3034 8.13829 40.5409 8.18553C41.4694 8.37025 43.6296 8.80001 43.8087 9.93024C43.1281 9.70328 42.6214 9.70328 42.1717 9.93024C43.1954 10.9618 44.1563 10.504 45.031 10.0873C45.7216 9.75832 46.3583 9.45496 46.9297 9.93024C46.2757 10.2738 45.8612 11.071 45.4444 11.8727C44.5505 13.5921 43.6461 15.3317 40.3458 12.6568C39.9502 12.7995 40.2025 13.0586 40.5757 13.4419C41.0256 13.9039 41.6513 14.5465 41.5301 15.3834C40.9935 14.9421 40.5171 14.8419 40.0295 14.7393C38.9587 14.514 37.834 14.2774 35.8996 10.3932ZM39.3894 27.0674V24.8795C40.124 25.5331 42.6244 27.1521 43.3859 26.8374C43.9068 26.678 43.9018 26.517 43.8849 25.9755C43.8781 25.7564 43.8693 25.4751 43.8926 25.1065C43.8075 25.1284 43.7001 25.1671 43.5743 25.2124C42.5743 25.5722 40.4159 26.3489 39.1376 22.4646L39.2785 18.5457C40.2349 18.6547 40.7686 18.8847 41.3322 19.1994C41.3322 19.645 41.3137 20.0494 41.297 20.4137C41.2317 21.8377 41.1945 22.6493 42.4025 22.9216C43.664 23.0977 43.7049 22.2503 43.7813 20.6662C43.7903 20.4807 43.7997 20.2852 43.8116 20.08L45.6375 20.9606V28.1478C45.8544 30.3369 44.0405 29.3708 42.0159 28.2925C41.1299 27.8206 40.2035 27.3272 39.3894 27.0674ZM13.2787 25.6179L13.3597 17.2354C14.46 17.0084 17.695 16.5817 18.7623 16.5817V18.001L15.4164 18.5427L15.5273 25.1034L15.4914 25.1083C14.8543 25.1954 14.0232 25.309 13.2787 25.6179ZM2.36255 30.956V21.1573C3.00715 20.7306 3.87961 20.195 4.75206 20.08L7.00365 23.4602L8.94644 18.5457C9.05737 18.461 10.3526 18.004 11.3389 17.6924L11.4199 26.1868C11.2792 26.2297 11.1236 26.2743 10.9597 26.3212C10.3725 26.4892 9.67754 26.6881 9.1713 26.9554V21.3873L7.00065 27.4941L4.5272 23.5752V29.3401C3.87961 29.6487 3.00715 30.2176 2.36255 30.956ZM21.5535 47.2822L16.7416 46.7738L16.7116 49.1584L11.8126 48.3081V45.9537L7.11757 44.595V47.031C6.02025 46.8071 3.43287 45.7026 2.25161 44.7069V36.1005C11.8726 45.0126 35.8186 44.7886 45.5296 36.3245V44.6767C45.1908 45.2395 41.4191 46.7466 40.7715 46.9705V44.5587L35.9026 46.0082V48.3958L31.0636 49.2795V46.8646L26.4225 47.2852V49.5882H21.5535V47.2822Z" fill="white"/>
<path d="M16.8351 7.74017C16.8391 7.77837 16.8461 7.81753 16.8548 7.85748C16.8474 7.81872 16.8408 7.77962 16.8351 7.74017Z" fill="white"/>
</svg>
